# xmcd CD database file
#
# Track frame offsets:
#	150
#	16996
#	29596
#	42077
#	55898
#	65138
#	82089
#	96188
#	109168
#	121968
#	136228
#	149249
#	161399
#	173780
#	187197
#	199135
#	215636
#	229441
#	242662
#	256087
#	267653
#	280371
#	291817
#	306492
#
# Disc length: 4231 seconds
#
# Revision: 0
# Processed by: cddbd v1.5.1PL0 Copyright (c) Steve Scherf et al.
# Submitted via: CDex 1.51
#
DISCID=80108518
DTITLE=Nancy Sinatra - The Very Best Of - 24 Great Songs
DYEAR=2002
DGENRE=Jazz
TTITLE0=Nancy Sinatra - Summer Wine (w Lee Hazlewood)
TTITLE1=Nancy Sinatra - The Last Of The Secret Agents
TTITLE2=Nancy Sinatra - These Boots Are Made For Wal..
TTITLE3=Nancy Sinatra - Lady Bird (With Lee Hazlewood)
TTITLE4=Nancy Sinatra - It Ain't Me Babe
TTITLE5=Nancy Sinatra - Sand (With Lee Hazlewood)
TTITLE6=Nancy Sinatra - So Long, Babe
TTITLE7=Nancy Sinatra - Wishin' And Hopin'
TTITLE8=Nancy Sinatra - Call Me
TTITLE9=Nancy Sinatra - Storybook Children (w Lee Ha..
TTITLE10=Nancy Sinatra - The Shadow Of Your Smile
TTITLE11=Nancy Sinatra - Somethin' Stupid (With Frank S
TTITLE12=Nancy Sinatra - Things
TTITLE13=Nancy Sinatra - You Only Live Twice
TTITLE14=Nancy Sinatra - Sundown, Sundown
TTITLE15=Nancy Sinatra - Some Velvet Morning
TTITLE16=Nancy Sinatra - Friday's Child
TTITLE17=Nancy Sinatra - Lightning's Girl
TTITLE18=Nancy Sinatra - Sorry 'bout That
TTITLE19=Nancy Sinatra - How Does That Grab You, Darl..
TTITLE20=Nancy Sinatra - Jackson
TTITLE21=Nancy Sinatra - 100 Years
TTITLE22=Nancy Sinatra - My Elusive Dreams
TTITLE23=Nancy Sinatra - Sugar Town
EXTD=YEAR: 2002
EXTT0=
EXTT1=
EXTT2=
EXTT3=
EXTT4=
EXTT5=
EXTT6=
EXTT7=
EXTT8=
EXTT9=
EXTT10=
EXTT11=
EXTT12=
EXTT13=
EXTT14=
EXTT15=
EXTT16=
EXTT17=
EXTT18=
EXTT19=
EXTT20=
EXTT21=
EXTT22=
EXTT23=
PLAYORDER=
